<?xml version="1.0" encoding="utf-8"?>
<!-- Generator: Adobe Illustrator 16.0.0, SVG Export Plug-In . SVG Version: 6.00 Build 0)  -->
<!DOCTYPE svg PUBLIC "-//W3C//DTD SVG 1.1//EN" "http://www.w3.org/Graphics/SVG/1.1/DTD/svg11.dtd">
<svg version="1.1" id="Layer_1" xmlns="http://www.w3.org/2000/svg" xmlns:xlink="http://www.w3.org/1999/xlink" x="0px" y="0px"
	 width="8.686px" height="9.559px" viewBox="0 0 8.686 9.559" enable-background="new 0 0 8.686 9.559" xml:space="preserve">
<g>
	<path d="M0,4.461c0.852,0,0.971-0.468,0.971-0.888c0-0.335-0.048-0.671-0.096-1.007s-0.096-0.66-0.096-0.996
		C0.779,0.468,1.499,0,2.519,0h0.252v0.66H2.555c-0.708,0-0.948,0.384-0.948,1.031c0,0.276,0.036,0.563,0.084,0.852
		c0.048,0.3,0.084,0.588,0.084,0.912c0.012,0.768-0.324,1.151-0.863,1.295v0.024c0.54,0.132,0.875,0.54,0.863,1.307
		c0,0.324-0.036,0.624-0.084,0.912c-0.048,0.3-0.084,0.576-0.084,0.863c0,0.672,0.276,1.043,0.948,1.043h0.216v0.66H2.519
		c-0.996,0-1.739-0.432-1.739-1.643c0-0.324,0.048-0.66,0.096-0.983S0.971,6.284,0.971,5.96c0-0.372-0.12-0.887-0.971-0.887V4.461z"
		/>
	<path d="M8.686,5.073c-0.852,0-0.972,0.516-0.972,0.887c0,0.324,0.048,0.648,0.096,0.972s0.096,0.66,0.096,0.983
		c0,1.211-0.755,1.643-1.739,1.643H5.916v-0.66H6.12c0.671-0.012,0.959-0.372,0.959-1.043c0-0.288-0.048-0.563-0.084-0.863
		C6.947,6.704,6.899,6.404,6.899,6.081c0-0.768,0.336-1.175,0.864-1.307V4.749C7.235,4.605,6.899,4.222,6.899,3.454
		c0-0.324,0.048-0.612,0.096-0.912c0.036-0.288,0.084-0.576,0.084-0.852c0-0.647-0.252-1.02-0.948-1.031H5.916V0h0.24
		c1.02,0,1.751,0.468,1.751,1.571c0,0.336-0.048,0.66-0.096,0.996S7.714,3.238,7.714,3.574c0,0.42,0.12,0.888,0.972,0.888V5.073z"/>
</g>
</svg>
